<?xml version="1.0" encoding="UTF-8" standalone="no"?>
<svg
   viewBox="0 0 515.34 673.26"
   version="1.1"
   id="svg3"
   sodipodi:docname="hyprlauncher.svg"
   inkscape:version="1.4 (e7c3feb100, 2024-10-09)"
   xmlns:inkscape="http://www.inkscape.org/namespaces/inkscape"
   xmlns:sodipodi="http://sodipodi.sourceforge.net/DTD/sodipodi-0.dtd"
   xmlns="http://www.w3.org/2000/svg"
   xmlns:svg="http://www.w3.org/2000/svg">
  <sodipodi:namedview
     id="namedview3"
     pagecolor="#ffffff"
     bordercolor="#000000"
     borderopacity="0.25"
     inkscape:showpageshadow="2"
     inkscape:pageopacity="0.0"
     inkscape:pagecheckerboard="0"
     inkscape:deskcolor="#d1d1d1"
     inkscape:zoom="0.94597253"
     inkscape:cx="140.59605"
     inkscape:cy="344.09033"
     inkscape:window-width="1916"
     inkscape:window-height="1056"
     inkscape:window-x="0"
     inkscape:window-y="20"
     inkscape:window-maximized="1"
     inkscape:current-layer="svg3" />
  <defs
     id="defs2">
    <style
       id="style1">
      .cls-1 {
        mix-blend-mode: difference;
      }

      .cls-2 {
        isolation: isolate;
      }

      .cls-3 {
        fill: url(#linear-gradient);
      }
    </style>
    <linearGradient
       id="linear-gradient"
       x1="8.93"
       y1="572.38"
       x2="572.68"
       y2="102.08"
       gradientUnits="userSpaceOnUse">
      <stop
         offset="0"
         stop-color="#00a2f8"
         id="stop1" />
      <stop
         offset="1"
         stop-color="#00e5cf"
         id="stop2" />
    </linearGradient>
    <filter
       style="color-interpolation-filters:sRGB;"
       inkscape:label="Invert"
       id="filter5"
       x="0"
       y="0"
       width="1"
       height="1">
      <feColorMatrix
         values="-1 0 0 0 1 0 -1 0 0 1 0 0 -1 0 1 -0.21 -0.72 -0.07 2 0 "
         result="color2"
         id="feColorMatrix5" />
    </filter>
  </defs>
  <g
     class="cls-2"
     id="g3"
     style="filter:url(#filter5)">
    <g
       id="Layer_2"
       data-name="Layer 2">
      <g
         id="Layer_1-2"
         data-name="Layer 1">
        <g
           class="cls-1"
           id="g2">
          <path
             class="cls-3"
             d="m288.53,0c1.99,2.11,3.26,3.13,4.14,4.42,15.97,23.63,31.7,47.44,47.91,70.91,9.33,13.51,19.26,26.61,29.22,39.67,9.63,12.65,19.8,24.88,29.44,37.53,11.15,14.63,22.45,29.18,32.81,44.36,13.27,19.45,26.64,38.94,38.12,59.44,9.76,17.43,17.56,36.05,25.02,54.64,5.28,13.16,8.82,27.06,12.6,40.78,1.75,6.36,2.24,13.07,3.26,19.62,1.26,8.02,3.4,16.04,3.53,24.08.35,20.94,2.17,41.95-1.48,62.8-4.02,22.99-10.75,45-20.76,66.23-10.12,21.45-22.38,41.26-37.39,59.59-13.6,16.61-29.57,30.33-46.84,42.91-12.68,9.23-26.09,17.07-40.36,23.3-12.84,5.6-26.07,10.09-39.69,13.89-30.75,8.56-61.93,10.44-93.33,8.23-18.93-1.33-38.08-3.65-56.11-10.46-14.82-5.6-29.75-11.13-43.92-18.13-11.19-5.52-21.91-12.44-31.73-20.15-12.88-10.11-25.52-20.81-36.67-32.74-9.99-10.68-18.64-22.87-26.4-35.31-8.18-13.13-15.39-27.01-21.58-41.2-6.69-15.32-11.01-31.45-14.53-47.97-5.48-25.71-3.71-51.44-2.59-77.09.64-14.73,4.53-29.47,8.26-43.86,3.93-15.18,8.68-30.26,14.44-44.84,5.77-14.6,12.47-28.96,20.14-42.65,9.63-17.18,20.25-33.85,31.2-50.23,9.94-14.88,20.68-29.24,31.47-43.52,8.69-11.5,18.17-22.41,26.97-33.83,8.9-11.55,17.46-23.36,26.07-35.13,9.11-12.46,18.29-24.87,27.09-37.55,11.16-16.07,21.91-32.43,32.97-48.57,1.58-2.31,3.88-4.14,5.84-6.19.39.22.78.44,1.18.66.08,1.77.23,3.54.23,5.31.01,26.33.15,52.66-.17,78.99-.05,3.86-1.62,8.15-3.72,11.46-8.5,13.45-17.19,26.8-26.38,39.79-8.71,12.31-18.12,24.13-27.22,36.16-7.5,9.91-14.97,19.83-22.52,29.7-5.24,6.85-10.74,13.5-15.86,20.44-7.16,9.72-14.35,19.45-21.03,29.5-8.06,12.12-15.99,24.36-23.23,36.97-5.18,9.02-9.26,18.69-13.59,28.17-2.4,5.26-4.61,10.64-6.36,16.14-3.1,9.76-5.58,19.71-8.68,29.47-8.72,27.42-6.87,55.63-4.92,83.5.99,14.15,6.11,28.15,10.4,41.89,6.01,19.24,16.32,36.3,27.95,52.74,7.94,11.23,16.95,21.38,27.14,30.36,8.39,7.38,17.5,14.17,27.07,19.92,10.89,6.54,22.23,12.77,34.12,17.07,12.69,4.59,26.1,7.99,39.48,9.68,15.93,2.01,32.16,1.58,48.25,2.34,14.94.7,29.43-2.29,43.93-5.14,18.41-3.62,35.23-11.56,51.58-20.26,19.55-10.4,35.98-25.13,50.37-41.73,14.71-16.97,27.06-36.05,34.92-57,8.29-22.1,15.2-44.97,14.15-69.26-.57-13.13.15-26.34-1.06-39.39-.89-9.61-3.62-19.11-6.16-28.5-2.98-11.03-6.03-22.1-10.16-32.73-4.11-10.59-9.36-20.75-14.52-30.9-4.57-8.99-9.32-17.92-14.66-26.46-6.5-10.39-13.38-20.59-20.68-30.43-11.05-14.9-22.74-29.32-33.91-44.12-13.08-17.33-26.13-34.68-38.77-52.33-10.91-15.22-21.31-30.81-31.71-46.39-1.67-2.5-3-5.79-3.03-8.72-.23-28.49-.15-56.98-.13-85.47,0-.95.24-1.91.58-4.44Z"
             id="path2" />
        </g>
      </g>
    </g>
  </g>
  <g
     id="g6"
     transform="matrix(0.73320774,0,0,0.73320811,62.207095,209.19844)">
	<path
   d="m 182.001,396.491 c 48.248,0 87.5,-39.252 87.5,-87.5 0,-48.248 -39.252,-87.5 -87.5,-87.5 -48.248,0 -87.5,39.252 -87.5,87.5 0,48.248 39.253,87.5 87.5,87.5 z m 0,-160 c 39.977,0 72.5,32.523 72.5,72.5 0,39.977 -32.523,72.5 -72.5,72.5 -39.977,0 -72.5,-32.523 -72.5,-72.5 0,-39.977 32.524,-72.5 72.5,-72.5 z"
   id="path1" />

	<path
   d="m 77.501,308.991 c 0,-57.622 46.878,-104.5 104.5,-104.5 15.674,0 30.742,3.383 44.785,10.055 3.741,1.777 8.215,0.185 9.993,-3.556 1.777,-3.741 0.186,-8.215 -3.556,-9.993 -16.07,-7.635 -33.303,-11.506 -51.222,-11.506 -65.893,0 -119.5,53.607 -119.5,119.5 0,27.129 8.863,52.704 25.63,73.958 1.48,1.876 3.676,2.855 5.893,2.855 1.626,0 3.264,-0.527 4.64,-1.612 3.252,-2.565 3.809,-7.281 1.243,-10.533 C 85.249,355.078 77.501,332.716 77.501,308.991 Z"
   id="path2-3" />

	<path
   d="m 280.004,254.215 c -3.741,1.777 -5.333,6.251 -3.556,9.993 6.671,14.043 10.053,29.11 10.053,44.783 0,57.622 -46.878,104.5 -104.5,104.5 -23.732,0 -46.099,-7.752 -64.682,-22.418 -3.251,-2.565 -7.967,-2.009 -10.534,1.241 -2.566,3.252 -2.011,7.968 1.241,10.534 21.257,16.776 46.837,25.643 73.975,25.643 65.893,0 119.5,-53.607 119.5,-119.5 0,-17.917 -3.871,-35.149 -11.504,-51.22 -1.777,-3.74 -6.25,-5.334 -9.993,-3.556 z"
   id="path3" />

	<path
   d="m 249.193,228.953 c 4.634,3.895 8.958,8.22 12.853,12.854 1.483,1.765 3.607,2.675 5.746,2.675 1.703,0 3.416,-0.577 4.821,-1.758 3.171,-2.665 3.582,-7.396 0.917,-10.567 -4.449,-5.295 -9.39,-10.236 -14.685,-14.686 -3.172,-2.666 -7.902,-2.254 -10.567,0.916 -2.666,3.17 -2.256,7.901 0.915,10.566 z"
   id="path4" />

	<path
   d="m 487.421,124.809 -18.105,-11.136 c 0.216,-3.925 0.169,-7.839 -0.14,-11.711 l 17.799,-11.617 c 2.672,-1.744 3.949,-4.989 3.18,-8.086 -2.94,-11.856 -7.769,-23.085 -14.352,-33.376 -1.72,-2.688 -4.953,-3.997 -8.057,-3.254 l -20.675,4.928 c -2.598,-2.887 -5.407,-5.615 -8.404,-8.158 l 4.372,-20.802 c 0.656,-3.124 -0.736,-6.32 -3.47,-7.967 -5.69,-3.428 -11.017,-6.114 -16.283,-8.213 -5.271,-2.101 -10.985,-3.815 -17.469,-5.241 -3.119,-0.687 -6.327,0.678 -7.999,3.396 l -11.136,18.106 c -3.925,-0.216 -7.839,-0.169 -11.711,0.139 L 363.354,4.019 c -1.745,-2.672 -4.99,-3.95 -8.086,-3.18 -11.856,2.94 -23.085,7.769 -33.376,14.352 -2.688,1.72 -3.994,4.952 -3.254,8.057 l 4.928,20.676 c -2.889,2.598 -5.615,5.407 -8.158,8.403 l -20.802,-4.372 c -3.125,-0.656 -6.32,0.736 -7.967,3.47 -3.428,5.69 -6.114,11.017 -8.213,16.283 -2.101,5.271 -3.815,10.985 -5.241,17.469 -0.685,3.117 0.677,6.327 3.396,7.999 l 18.106,11.136 c -0.216,3.925 -0.169,7.839 0.14,11.711 l -17.799,11.617 c -2.673,1.745 -3.949,4.989 -3.18,8.086 2.371,9.559 5.99,18.7 10.744,27.279 L 266.586,173.8 c -3.021,-1.863 -6.271,-3.704 -9.8,-5.551 l 0.358,-21.644 c 0.051,-3.072 -1.778,-5.865 -4.614,-7.047 -14.908,-6.212 -30.698,-10.421 -46.932,-12.508 -3.043,-0.389 -6.021,1.113 -7.512,3.797 l -10.465,18.84 c -3.646,-0.224 -7.593,-0.224 -11.239,0 l -10.465,-18.84 c -1.49,-2.684 -4.467,-4.183 -7.512,-3.797 -16.234,2.087 -32.024,6.295 -46.932,12.508 -2.836,1.182 -4.665,3.975 -4.614,7.047 l 0.358,21.644 c -3.529,1.847 -6.779,3.688 -9.8,5.551 L 78.992,162.752 c -2.638,-1.583 -5.974,-1.393 -8.416,0.477 -12.905,9.879 -24.457,21.431 -34.336,34.336 -1.87,2.442 -2.059,5.778 -0.477,8.416 l 11.048,18.425 c -1.863,3.022 -3.704,6.271 -5.55,9.8 l -21.644,-0.358 c -3.021,-0.049 -5.865,1.777 -7.047,4.614 -6.214,14.908 -10.422,30.698 -12.509,46.932 -0.391,3.045 1.113,6.021 3.797,7.512 l 18.84,10.465 c -0.112,1.823 -0.197,3.693 -0.197,5.62 0,1.927 0.085,3.796 0.197,5.62 l -18.84,10.465 c -2.684,1.491 -4.188,4.467 -3.797,7.512 2.087,16.234 6.295,32.024 12.508,46.932 1.182,2.836 3.983,4.642 7.047,4.614 l 21.644,-0.358 c 1.847,3.529 3.688,6.779 5.551,9.8 l -11.048,18.425 c -1.582,2.638 -1.393,5.974 0.477,8.416 9.879,12.905 21.431,24.457 34.336,34.336 2.442,1.869 5.779,2.06 8.416,0.477 l 18.425,-11.048 c 3.021,1.863 6.271,3.704 9.8,5.551 l -0.358,21.644 c -0.051,3.072 1.778,5.865 4.614,7.047 14.908,6.213 30.698,10.421 46.932,12.508 3.042,0.387 6.021,-1.113 7.512,-3.797 l 10.465,-18.84 c 3.646,0.224 7.593,0.224 11.239,0 l 10.465,18.84 c 1.333,2.401 3.856,3.858 6.554,3.858 0.318,0 0.638,-0.02 0.958,-0.061 16.234,-2.087 32.024,-6.295 46.932,-12.508 2.836,-1.182 4.665,-3.975 4.614,-7.047 l -0.358,-21.644 c 3.529,-1.847 6.779,-3.688 9.8,-5.551 l 18.425,11.048 c 2.637,1.582 5.973,1.392 8.416,-0.477 12.905,-9.879 24.457,-21.431 34.336,-34.336 1.87,-2.442 2.059,-5.778 0.477,-8.416 l -11.048,-18.425 c 1.863,-3.021 3.704,-6.271 5.551,-9.8 l 21.644,0.358 c 3.081,0.017 5.865,-1.778 7.047,-4.614 6.213,-14.908 10.421,-30.698 12.508,-46.932 0.391,-3.045 -1.113,-6.021 -3.797,-7.512 l -18.84,-10.465 c 0.112,-1.823 0.197,-3.692 0.197,-5.62 0,-1.928 -0.085,-3.797 -0.197,-5.62 l 18.84,-10.465 c 2.684,-1.491 4.188,-4.467 3.797,-7.512 -2.087,-16.234 -6.295,-32.024 -12.508,-46.932 -1.182,-2.836 -3.992,-4.639 -7.047,-4.614 l -21.644,0.358 c -1.847,-3.529 -3.687,-6.778 -5.55,-9.8 l 10.788,-17.991 c 4.381,2.465 8.579,4.495 12.736,6.151 5.27,2.101 10.984,3.815 17.469,5.241 0.537,0.118 1.077,0.175 1.611,0.175 2.566,0 5.003,-1.321 6.387,-3.571 l 11.137,-18.106 c 3.924,0.217 7.838,0.169 11.711,-0.14 l 11.617,17.8 c 1.744,2.672 4.989,3.948 8.086,3.18 11.855,-2.941 23.084,-7.77 33.375,-14.352 2.688,-1.72 3.995,-4.953 3.255,-8.057 l -4.928,-20.676 c 2.888,-2.598 5.614,-5.406 8.158,-8.403 l 20.802,4.372 c 3.122,0.652 6.32,-0.735 7.967,-3.47 3.428,-5.69 6.114,-11.017 8.213,-16.283 2.101,-5.27 3.815,-10.984 5.241,-17.469 0.684,-3.117 -0.678,-6.327 -3.397,-7.998 z m -169.115,124.473 21.156,-0.351 c 4.085,10.723 7.063,21.909 8.883,33.37 l -18.483,10.268 c -2.533,1.407 -4.028,4.146 -3.842,7.038 0.045,0.699 0.093,1.398 0.142,2.097 0.175,2.527 0.341,4.915 0.341,7.287 0,2.372 -0.166,4.759 -0.341,7.286 -0.048,0.699 -0.097,1.398 -0.142,2.098 -0.186,2.892 1.31,5.631 3.842,7.038 l 18.483,10.268 c -1.82,11.461 -4.798,22.647 -8.883,33.37 l -21.156,-0.35 c -2.904,-0.039 -5.563,1.577 -6.847,4.174 -3.144,6.356 -6.194,11.719 -9.325,16.394 -1.615,2.413 -1.693,5.541 -0.2,8.03 l 10.779,17.976 c -7.288,8.952 -15.477,17.141 -24.428,24.428 l -17.976,-10.779 c -2.491,-1.494 -5.619,-1.415 -8.03,0.2 -4.675,3.131 -10.038,6.181 -16.394,9.325 -2.597,1.284 -4.222,3.95 -4.174,6.847 l 0.35,21.156 c -10.723,4.085 -21.909,7.063 -33.37,8.883 l -10.268,-18.483 c -1.328,-2.391 -3.844,-3.858 -6.555,-3.858 -0.16,0 -0.322,0.005 -0.483,0.016 -0.7,0.045 -1.398,0.093 -2.098,0.142 -2.527,0.175 -4.914,0.341 -7.286,0.341 -2.372,0 -4.759,-0.166 -7.286,-0.341 -0.699,-0.048 -1.398,-0.097 -2.098,-0.142 -2.902,-0.195 -5.631,1.309 -7.038,3.842 l -10.268,18.483 c -11.461,-1.82 -22.647,-4.798 -33.37,-8.883 l 0.35,-21.156 c 0.048,-2.897 -1.577,-5.563 -4.174,-6.847 -6.356,-3.144 -11.719,-6.194 -16.394,-9.325 -2.412,-1.614 -5.54,-1.692 -8.03,-0.2 L 75.717,439.703 C 66.765,432.415 58.576,424.226 51.289,415.275 l 10.779,-17.976 c 1.493,-2.49 1.415,-5.618 -0.2,-8.03 -3.131,-4.675 -6.181,-10.038 -9.325,-16.394 -1.284,-2.597 -3.913,-4.199 -6.847,-4.174 l -21.156,0.35 c -4.085,-10.723 -7.063,-21.909 -8.883,-33.37 L 34.14,325.413 c 2.533,-1.407 4.028,-4.146 3.842,-7.038 -0.045,-0.7 -0.093,-1.398 -0.142,-2.098 -0.175,-2.527 -0.341,-4.914 -0.341,-7.286 0,-2.373 0.166,-4.76 0.341,-7.287 0.048,-0.699 0.097,-1.397 0.142,-2.097 0.186,-2.892 -1.31,-5.631 -3.842,-7.038 L 15.657,282.301 c 1.82,-11.461 4.797,-22.647 8.883,-33.37 l 21.156,0.351 c 2.895,0.033 5.563,-1.577 6.847,-4.174 3.143,-6.354 6.193,-11.717 9.325,-16.395 1.615,-2.412 1.693,-5.54 0.2,-8.03 L 51.289,202.707 c 7.288,-8.952 15.477,-17.141 24.428,-24.428 l 17.976,10.779 c 2.489,1.494 5.618,1.415 8.03,-0.2 4.675,-3.131 10.038,-6.181 16.394,-9.325 2.597,-1.284 4.222,-3.95 4.174,-6.847 l -0.35,-21.156 c 10.723,-4.085 21.909,-7.063 33.37,-8.883 l 10.268,18.483 c 1.406,2.532 4.141,4.038 7.038,3.842 0.7,-0.045 1.398,-0.093 2.098,-0.142 2.527,-0.175 4.914,-0.341 7.286,-0.341 2.372,0 4.759,0.166 7.286,0.341 0.699,0.048 1.398,0.097 2.098,0.142 2.893,0.186 5.631,-1.31 7.038,-3.842 l 10.268,-18.483 c 11.461,1.82 22.647,4.798 33.37,8.883 l -0.35,21.156 c -0.048,2.897 1.577,5.563 4.174,6.847 6.356,3.144 11.719,6.194 16.394,9.325 2.412,1.615 5.541,1.694 8.03,0.2 l 17.976,-10.779 c 8.952,7.288 17.141,15.477 24.428,24.428 l -10.779,17.976 c -1.493,2.49 -1.415,5.618 0.2,8.03 3.132,4.678 6.182,10.04 9.325,16.395 1.285,2.597 3.924,4.209 6.847,4.174 z m -15.61,-78.463 14.235,-3.393 c 2.599,2.888 5.407,5.615 8.404,8.158 l -3.167,15.068 c -5.988,-7.087 -12.488,-13.727 -19.472,-19.833 z m 168.946,-26.096 c -1.231,3.088 -2.715,6.229 -4.495,9.506 l -19.972,-4.197 c -2.836,-0.597 -5.762,0.495 -7.515,2.803 -3.609,4.75 -7.74,9.004 -12.276,12.641 -2.263,1.813 -3.277,4.77 -2.604,7.59 l 4.723,19.815 c -6.115,3.459 -12.572,6.236 -19.289,8.295 l -11.133,-17.059 c -1.585,-2.428 -4.426,-3.727 -7.3,-3.331 -5.763,0.791 -11.691,0.863 -17.622,0.214 -2.884,-0.313 -5.686,1.058 -7.204,3.526 l -10.692,17.383 c -3.602,-0.962 -6.902,-2.045 -9.993,-3.277 -3.088,-1.231 -6.229,-2.715 -9.506,-4.495 l 4.197,-19.972 c 0.596,-2.836 -0.496,-5.762 -2.803,-7.515 -4.75,-3.608 -9.003,-7.739 -12.642,-12.277 -1.814,-2.263 -4.769,-3.278 -7.59,-2.604 l -19.815,4.723 c -3.459,-6.115 -6.235,-12.571 -8.294,-19.289 l 17.059,-11.133 c 2.429,-1.585 3.726,-4.428 3.331,-7.301 -0.791,-5.76 -0.863,-11.688 -0.214,-17.62 0.315,-2.881 -1.058,-5.686 -3.526,-7.204 L 289.084,83.253 c 0.962,-3.602 2.045,-6.902 3.277,-9.993 1.231,-3.088 2.715,-6.229 4.495,-9.506 l 19.971,4.197 c 2.835,0.595 5.762,-0.496 7.515,-2.803 3.607,-4.75 7.738,-9.002 12.276,-12.641 2.263,-1.814 3.277,-4.77 2.605,-7.591 L 334.5,25.101 c 6.116,-3.459 12.571,-6.235 19.289,-8.294 l 11.133,17.058 c 1.584,2.428 4.423,3.724 7.301,3.331 5.758,-0.79 11.687,-0.862 17.62,-0.214 2.88,0.314 5.686,-1.058 7.204,-3.526 l 10.692,-17.383 c 3.602,0.962 6.902,2.045 9.993,3.277 3.088,1.231 6.229,2.715 9.506,4.495 l -4.197,19.972 c -0.596,2.836 0.495,5.762 2.803,7.515 4.752,3.61 9.005,7.741 12.642,12.277 1.813,2.263 4.768,3.275 7.59,2.604 l 19.815,-4.723 c 3.459,6.116 6.235,12.571 8.294,19.289 l -17.059,11.133 c -2.429,1.585 -3.726,4.428 -3.331,7.301 0.791,5.761 0.863,11.689 0.215,17.62 -0.315,2.881 1.058,5.686 3.526,7.204 l 17.382,10.692 c -0.961,3.602 -2.044,6.903 -3.276,9.994 z"
   id="path5" />

	<path
   d="m 399.589,64.868 c -24.332,-9.698 -52.013,2.206 -61.711,26.536 -9.698,24.33 2.206,52.014 26.536,61.711 5.751,2.292 11.686,3.377 17.53,3.377 18.879,0 36.776,-11.335 44.182,-29.914 9.697,-24.329 -2.207,-52.013 -26.537,-61.71 z m 12.602,56.157 c -6.635,16.646 -25.576,24.791 -42.224,18.156 -16.646,-6.636 -24.792,-25.577 -18.156,-42.224 5.067,-12.712 17.312,-20.467 30.23,-20.467 3.998,0 8.06,0.743 11.994,2.311 16.647,6.636 24.792,25.577 18.156,42.224 z"
   id="path6" />

</g>
</svg>
